<svg width="24" height="24" viewBox="0 0 200 200" fill="none" xmlns="http://www.w3.org/2000/svg">
    <!-- Engrenagem Grande -->
    <g transform="translate(70,100)">
        <circle r="30" fill="#3b82f6" />
        <!-- Dentes -->
        <g>
            <g transform="rotate(0)">
                <rect x="-2" y="-42" width="4" height="12" fill="#3b82f6" />
            </g>
            <g transform="rotate(30)">
                <rect x="-2" y="-42" width="4" height="12" fill="#3b82f6" />
            </g>
            <g transform="rotate(60)">
                <rect x="-2" y="-42" width="4" height="12" fill="#3b82f6" />
            </g>
            <g transform="rotate(90)">
                <rect x="-2" y="-42" width="4" height="12" fill="#3b82f6" />
            </g>
            <g transform="rotate(120)">
                <rect x="-2" y="-42" width="4" height="12" fill="#3b82f6" />
            </g>
            <g transform="rotate(150)">
                <rect x="-2" y="-42" width="4" height="12" fill="#3b82f6" />
            </g>
            <g transform="rotate(180)">
                <rect x="-2" y="-42" width="4" height="12" fill="#3b82f6" />
            </g>
            <g transform="rotate(210)">
                <rect x="-2" y="-42" width="4" height="12" fill="#3b82f6" />
            </g>
            <g transform="rotate(240)">
                <rect x="-2" y="-42" width="4" height="12" fill="#3b82f6" />
            </g>
            <g transform="rotate(270)">
                <rect x="-2" y="-42" width="4" height="12" fill="#3b82f6" />
            </g>
            <g transform="rotate(300)">
                <rect x="-2" y="-42" width="4" height="12" fill="#3b82f6" />
            </g>
            <g transform="rotate(330)">
                <rect x="-2" y="-42" width="4" height="12" fill="#3b82f6" />
            </g>
        </g>
        <!-- Furo central -->
        <circle r="10" fill="white" />
    </g>

    <!-- Engrenagem Média -->
    <g transform="translate(125,60) scale(0.65)">
        <circle r="30" fill="#3b82f6" />
        <g>
            <g transform="rotate(0)">
                <rect x="-2" y="-42" width="4" height="12" fill="#3b82f6" />
            </g>
            <g transform="rotate(30)">
                <rect x="-2" y="-42" width="4" height="12" fill="#3b82f6" />
            </g>
            <g transform="rotate(60)">
                <rect x="-2" y="-42" width="4" height="12" fill="#3b82f6" />
            </g>
            <g transform="rotate(90)">
                <rect x="-2" y="-42" width="4" height="12" fill="#3b82f6" />
            </g>
            <g transform="rotate(120)">
                <rect x="-2" y="-42" width="4" height="12" fill="#3b82f6" />
            </g>
            <g transform="rotate(150)">
                <rect x="-2" y="-42" width="4" height="12" fill="#3b82f6" />
            </g>
            <g transform="rotate(180)">
                <rect x="-2" y="-42" width="4" height="12" fill="#3b82f6" />
            </g>
            <g transform="rotate(210)">
                <rect x="-2" y="-42" width="4" height="12" fill="#3b82f6" />
            </g>
            <g transform="rotate(240)">
                <rect x="-2" y="-42" width="4" height="12" fill="#3b82f6" />
            </g>
            <g transform="rotate(270)">
                <rect x="-2" y="-42" width="4" height="12" fill="#3b82f6" />
            </g>
            <g transform="rotate(300)">
                <rect x="-2" y="-42" width="4" height="12" fill="#3b82f6" />
            </g>
            <g transform="rotate(330)">
                <rect x="-2" y="-42" width="4" height="12" fill="#3b82f6" />
            </g>
        </g>
        <circle r="10" fill="white" />
    </g>

    <!-- Engrenagem Pequena -->
    <g transform="translate(155,30) scale(0.4)">
        <circle r="30" fill="#3b82f6" />
        <g>
            <g transform="rotate(0)">
                <rect x="-2" y="-42" width="4" height="12" fill="#3b82f6" />
            </g>
            <g transform="rotate(30)">
                <rect x="-2" y="-42" width="4" height="12" fill="#3b82f6" />
            </g>
            <g transform="rotate(60)">
                <rect x="-2" y="-42" width="4" height="12" fill="#3b82f6" />
            </g>
            <g transform="rotate(90)">
                <rect x="-2" y="-42" width="4" height="12" fill="#3b82f6" />
            </g>
            <g transform="rotate(120)">
                <rect x="-2" y="-42" width="4" height="12" fill="#3b82f6" />
            </g>
            <g transform="rotate(150)">
                <rect x="-2" y="-42" width="4" height="12" fill="#3b82f6" />
            </g>
            <g transform="rotate(180)">
                <rect x="-2" y="-42" width="4" height="12" fill="#3b82f6" />
            </g>
            <g transform="rotate(210)">
                <rect x="-2" y="-42" width="4" height="12" fill="#3b82f6" />
            </g>
            <g transform="rotate(240)">
                <rect x="-2" y="-42" width="4" height="12" fill="#3b82f6" />
            </g>
            <g transform="rotate(270)">
                <rect x="-2" y="-42" width="4" height="12" fill="#3b82f6" />
            </g>
            <g transform="rotate(300)">
                <rect x="-2" y="-42" width="4" height="12" fill="#3b82f6" />
            </g>
            <g transform="rotate(330)">
                <rect x="-2" y="-42" width="4" height="12" fill="#3b82f6" />
            </g>
        </g>
        <circle r="10" fill="white" />
    </g>
</svg> 