<svg width="24" height="24" viewBox="0 0 512 512" fill="none" xmlns="http://www.w3.org/2000/svg">
    <path
        d="M64 32C28.7 32 0 60.7 0 96v64c0 35.3 28.7 64 64 64h64c35.3 0 64-28.7 64-64V96c0-35.3-28.7-64-64-64H64zm384 0H320c-35.3 0-64 28.7-64 64v64c0 35.3 28.7 64 64 64h128c35.3 0 64-28.7 64-64V96c0-35.3-28.7-64-64-64zM64 320c-35.3 0-64 28.7-64 64v64c0 35.3 28.7 64 64 64h64c35.3 0 64-28.7 64-64v-64c0-35.3-28.7-64-64-64H64zm384 0H320c-35.3 0-64 28.7-64 64v64c0 35.3 28.7 64 64 64h128c35.3 0 64-28.7 64-64v-64c0-35.3-28.7-64-64-64zM128 96c0 17.7 14.3 32 32 32h192c17.7 0 32-14.3 32-32s-14.3-32-32-32H160c-17.7 0-32 14.3-32 32zm0 320c0 17.7 14.3 32 32 32h192c17.7 0 32-14.3 32-32s-14.3-32-32-32H160c-17.7 0-32 14.3-32 32z"
        fill="#3b82f6"
    />
</svg> 